<svg xmlns="http://www.w3.org/2000/svg" viewBox="0 0 88 88"><title>Artboard-19</title><g id="Cruise"><path d="M1,82c3.4785,0,5.2646-1.7451,6.8408-3.2847C9.332,77.2583,10.62,76,13.2832,76s3.9512,1.2583,5.4414,2.7153C20.3008,80.2549,22.0859,82,25.5635,82s5.2646-1.7451,6.8408-3.2847C33.8955,77.2583,35.1836,76,37.8467,76S41.8,77.2583,43.292,78.7153C44.8682,80.2549,46.6543,82,50.1338,82s5.2646-1.7451,6.8408-3.2847C58.4658,77.2583,59.7539,76,62.417,76c2.666,0,3.9541,1.2583,5.4473,2.7153C69.44,80.2549,71.2285,82,74.708,82s5.2676-1.7451,6.8447-3.2847C83.0459,77.2583,84.335,76,87,76a1,1,0,0,0,0-2c-3.48,0-5.2676,1.7446-6.8437,3.2842C78.6631,78.7417,77.374,80,74.708,80s-3.9541-1.2583-5.4473-2.7153C67.6846,75.7451,65.8965,74,62.417,74s-5.2647,1.7451-6.8408,3.2847C54.085,78.7417,52.7969,80,50.1338,80s-3.9531-1.2583-5.4453-2.7153C43.1123,75.7451,41.3262,74,37.8467,74s-5.2647,1.7451-6.8408,3.2847C29.5146,78.7417,28.2266,80,25.5635,80s-3.95-1.2583-5.44-2.7148C18.5469,75.7451,16.7607,74,13.2832,74s-5.2646,1.7451-6.8408,3.2847C4.9512,78.7417,3.6631,80,1,80a1,1,0,0,0,0,2Z" style="fill:#1d1b1e"/><path d="M87,80c-3.48,0-5.2676,1.7446-6.8437,3.2842C78.6631,84.7417,77.374,86,74.708,86s-3.9541-1.2583-5.4473-2.7153C67.6846,81.7451,65.8965,80,62.417,80s-5.2647,1.7451-6.8408,3.2847C54.085,84.7417,52.7969,86,50.1338,86s-3.9531-1.2583-5.4453-2.7153C43.1123,81.7451,41.3262,80,37.8467,80s-5.2647,1.7451-6.8408,3.2847C29.5146,84.7417,28.2266,86,25.5635,86s-3.95-1.2583-5.44-2.7148C18.5469,81.7451,16.7607,80,13.2832,80s-5.2646,1.7451-6.8408,3.2847C4.9512,84.7417,3.6631,86,1,86a1,1,0,0,0,0,2c3.4785,0,5.2646-1.7451,6.8408-3.2847C9.332,83.2583,10.62,82,13.2832,82s3.9512,1.2583,5.4414,2.7153C20.3008,86.2549,22.0859,88,25.5635,88s5.2646-1.7451,6.8408-3.2847C33.8955,83.2583,35.1836,82,37.8467,82S41.8,83.2583,43.292,84.7153C44.8682,86.2549,46.6543,88,50.1338,88s5.2646-1.7451,6.8408-3.2847C58.4658,83.2583,59.7539,82,62.417,82c2.666,0,3.9541,1.2583,5.4473,2.7153C69.44,86.2549,71.2285,88,74.708,88s5.2676-1.7451,6.8447-3.2847C83.0459,83.2583,84.335,82,87,82a1,1,0,0,0,0-2Z" style="fill:#1d1b1e"/><path d="M33,53a1,1,0,0,0-1,1v4a1,1,0,0,0,1,1h4a1,1,0,0,0,1-1V54a1,1,0,0,0-1-1Zm3,4H34V55h2Z" style="fill:#1d1b1e"/><path d="M41,53a1,1,0,0,0-1,1v4a1,1,0,0,0,1,1h4a1,1,0,0,0,1-1V54a1,1,0,0,0-1-1Zm3,4H42V55h2Z" style="fill:#1d1b1e"/><path d="M49,53a1,1,0,0,0-1,1v4a1,1,0,0,0,1,1h4a1,1,0,0,0,1-1V54a1,1,0,0,0-1-1Zm3,4H50V55h2Z" style="fill:#1d1b1e"/><path d="M62,58V54a1,1,0,0,0-1-1H57a1,1,0,0,0-1,1v4a1,1,0,0,0,1,1h4A1,1,0,0,0,62,58Zm-2-1H58V55h2Z" style="fill:#1d1b1e"/><path d="M69,59a1,1,0,0,0,1-1V54a1,1,0,0,0-1-1H65a1,1,0,0,0-1,1v4a1,1,0,0,0,1,1Zm-3-4h2v2H66Z" style="fill:#1d1b1e"/><path d="M10.14,21.8345a1,1,0,1,0,1.1016-1.669,4.9822,4.9822,0,0,1,.9066-8.7926,6.8545,6.8545,0,0,0,.8454,2.2228,1,1,0,1,0,1.7129-1.0312A4.9444,4.9444,0,0,1,14,10.0723c0-.0114-.0063-.0209-.0069-.0322.0006-.0135.0069-.0266.0069-.04a5.0059,5.0059,0,0,1,5-5c.099,0,.2.0156.3.0218-.0332.1139-.0759.2226-.1034.34a1,1,0,0,0,1.9473.4571,4.3741,4.3741,0,0,1,.414-1.0987l.0036-.0115.0072-.01A4.9668,4.9668,0,0,1,26,2a5.04,5.04,0,0,1,4.1144,2.1547l.0028.0064a4.9549,4.9549,0,0,1,.6865,1.4468,1,1,0,0,0,1.9219-.5561,6.9553,6.9553,0,0,0-.4851-1.2,4.94,4.94,0,0,1,6.3806.7128,1.0007,1.0007,0,0,0,1.5342-.0922,5.9808,5.9808,0,0,1,9.0332-.76,1,1,0,1,0,1.4023-1.4248A7.92,7.92,0,0,0,45,0a8.042,8.042,0,0,0-5.7441,2.4463A6.8935,6.8935,0,0,0,35,1a6.9731,6.9731,0,0,0-3.9072,1.1992,6.9935,6.9935,0,0,0-10.9043.9058,6.98,6.98,0,0,0-8.1446,6.1792,6.9921,6.9921,0,0,0-1.9043,12.55Z" style="fill:#1d1b1e"/><path d="M25.0713,9.6709a.9856.9856,0,0,0-1.1016.8872,4.8466,4.8466,0,0,1-.5152,1.7124c-.0061.0108-.0161.0178-.0219.0288a5.0265,5.0265,0,0,1-3.6006,2.625A1.0992,1.0992,0,0,0,19,16a4.9792,4.9792,0,0,1-2.2412,4.1655,1,1,0,1,0,1.1016,1.669,6.9756,6.9756,0,0,0,3.0966-5.1211,7.054,7.054,0,0,0,3.8506-2.8189,6.909,6.909,0,0,0,5.1-1.0937A7.0285,7.0285,0,0,0,35,15a6.8935,6.8935,0,0,0,4.2559-1.4463A8.042,8.042,0,0,0,45,16a7.6159,7.6159,0,0,0,1.1494-.0811,1,1,0,1,0-.2988-1.9775A5.6525,5.6525,0,0,1,45,14a5.9691,5.9691,0,0,1-4.8447-2.4727c-.0048-.0065-.013-.0092-.018-.0156a5.9457,5.9457,0,0,1-.901-1.8388,1,1,0,0,0-1.9218.5566,7.9269,7.9269,0,0,0,.728,1.7087A4.9008,4.9008,0,0,1,35,13a5.04,5.04,0,0,1-4.1211-2.1631,1.0015,1.0015,0,0,0-.71-.4209.99.99,0,0,0-.7851.2569,4.8667,4.8667,0,0,1-3.6681,1.3093,6.9032,6.9032,0,0,0,.2423-1.21A.9994.9994,0,0,0,25.0713,9.6709Z" style="fill:#1d1b1e"/><path d="M4.8408,76.0537a1,1,0,0,0,.1631-1.4048A13.7957,13.7957,0,0,1,2,66V61H18a.9993.9993,0,0,0,.707-.293L29.4141,50H83.8125L81.43,51.6587A19.9015,19.9015,0,0,0,73.5316,63H59a1,1,0,0,0,0,2H73.1052a20.0145,20.0145,0,0,0-.2,2H65a1,1,0,0,0,0,2h7.9044a19.7593,19.7593,0,0,0,2.2089,8.2422,1.0137,1.0137,0,0,0,.8965.5376.9986.9986,0,0,0,.8418-1.53,17.9724,17.9724,0,0,1,5.72-22.9487l5-3.48A1,1,0,0,0,87,48H83V35a1,1,0,0,0-1-1H75V21a1,1,0,0,0-1-1H67V7a1,1,0,0,0-1-1H50a1,1,0,0,0-1,1V20H42a1,1,0,0,0-1,1V34H34a1,1,0,0,0-1,1V48H29a.9993.9993,0,0,0-.707.293L22.46,54.1255,18.9932,24.8823A1,1,0,0,0,18,24H10a.9914.9914,0,0,0-.6326.2335c-.01.0081-.0232.0116-.0328.02a1.0015,1.0015,0,0,0-.1136.1451.9989.9989,0,0,0-.1062.136c-.0033.0063-.0032.0144-.0063.0208a.9909.9909,0,0,0-.1017.33l-.46,4c-.0006.0047.0017.0091.0013.0138L5.1081,59H1a1,1,0,0,0-1,1v6a15.7811,15.7811,0,0,0,3.4355,9.8911A1.0012,1.0012,0,0,0,4.8408,76.0537ZM51,36h3v6a1,1,0,0,0,1.5547.832L58,41.2017l2.4453,1.63A1,1,0,0,0,62,42V36h3V48H51Zm9,0v4.1313l-1.4453-.9633a1,1,0,0,0-1.1094,0L56,40.1313V36ZM81,48H67V36h3v6a1,1,0,0,0,1.5547.832L74,41.2017l2.4453,1.63A1,1,0,0,0,78,42V36h3Zm-5-7.8687-1.4453-.9633a1,1,0,0,0-1.1094,0L72,40.1313V36h4ZM73,34H59V22h3v6a1,1,0,0,0,1.5547.832L66,27.2017l2.4453,1.63A1,1,0,0,0,70,28V22h3Zm-5-7.8687-1.4453-.9633a1,1,0,0,0-1.1094,0L64,26.1313V22h4ZM60,8v4.1313l-1.4453-.9633a1,1,0,0,0-1.1094,0L56,12.1313V8ZM51,8h3v6a1,1,0,0,0,1.5547.832L58,13.2017l2.4453,1.63A1,1,0,0,0,62,14V8h3V20H51ZM50,22h2v4.1313l-1.4453-.9633a1,1,0,0,0-1.1094,0L48,26.1313V22Zm-7,0h3v6a1,1,0,0,0,1.5547.832L50,27.2017l2.4453,1.63A1,1,0,0,0,54,28V22h3V34H43Zm1,14v4.1313l-1.4453-.9633a1,1,0,0,0-1.1094,0L40,40.1313V36Zm-9,0h3v6a1,1,0,0,0,1.5547.832L42,41.2017l2.4453,1.63A1,1,0,0,0,46,42V36h3V48H35ZM17.11,26l.2353,2H10.664l.2286-2Zm-6.675,4h7.15L20.66,55.9258,17.5859,59H7.1211Z" style="fill:#1d1b1e"/></g></svg>