<svg xmlns="http://www.w3.org/2000/svg" viewBox="0 0 64 64"><defs><style>.cls-1{fill:#fc9b28;}.cls-2{fill:#ffd24f;}.cls-3{fill:#b2b9bf;}.cls-4{fill:#d0d7dc;}.cls-5{fill:#c55f54;}.cls-6{fill:#b5e0f0;}.cls-7{fill:#2d91c0;}.cls-8{fill:#29394a;}</style></defs><title>13-Cargo ship</title><g id="_13-Cargo_ship" data-name="13-Cargo ship"><polygon class="cls-1" points="38 27 31 27 31 15 49 15 49 27 42 27 38 27"/><path class="cls-2" d="M42,27H60v3H46.96a4.009,4.009,0,0,0-3.16,1.54L42,33.86Z"/><path class="cls-2" d="M31,27h7V38.48a3.908,3.908,0,0,1-1.96.52H20V27Z"/><polygon class="cls-3" points="14 20 14 26 6 26 6 20 8 20 12 20 14 20"/><path class="cls-4" d="M16,26V39c-2.64,0-3.54-.87-3.84-2.04A7.793,7.793,0,0,1,12,35a1.959,1.959,0,0,0-2-2H4V26H16Z"/><path class="cls-5" d="M12,35a7.793,7.793,0,0,0,.16,1.96L12,37H1.31A32.711,32.711,0,0,1,1,33h9A1.959,1.959,0,0,1,12,35Z"/><path class="cls-5" d="M43.8,31.54A4.009,4.009,0,0,1,46.96,30H63c0,1.45-.04,2.79-.1,4H42v-.14Z"/><path class="cls-6" d="M60,47a3,3,0,0,1,0,6H4a3,3,0,0,1,0-6H60Z"/><path class="cls-7" d="M42,34H62.9C62.18,47,58,47,58,47H8c-4.53,0-6.13-5.86-6.69-10H12l.16-.04C12.46,38.13,13.36,39,16,39H36.04a4.082,4.082,0,0,0,3.16-1.54l2.8-3.6Z"/><path class="cls-8" d="M60.87,46.1c1.313-1.795,2.654-5.283,3.029-12.053.067-1.359.1-2.721.1-4.049a1,1,0,0,0-1-1H61V27a1,1,0,0,0-1-1H50V15a1,1,0,0,0-1-1H31a1,1,0,0,0-1,1V26H20a1,1,0,0,0-1,1V38H17V26a1,1,0,0,0-1-1H15V20a1,1,0,0,0-1-1H13V14H11v5H9V11H7v8H6a1,1,0,0,0-1,1v5H4a1,1,0,0,0-1,1v6H1a1,1,0,0,0-1,1,33.312,33.312,0,0,0,.319,4.134c.553,4.085,1.714,7.091,3.378,8.9A3.97,3.97,0,0,0,0,50a4,4,0,0,0,4,4H60a4,4,0,0,0,.87-7.9ZM2.479,38H11.5c.694,1.339,2.169,2,4.5,2H36.04a4.91,4.91,0,0,0,2.438-.641A4.843,4.843,0,0,0,39,39h0a4.986,4.986,0,0,0,.989-.926L42.378,35H53v4a1,1,0,0,1-2,0H49a2.987,2.987,0,0,0,5,2.22A2.987,2.987,0,0,0,59,39H57a1,1,0,0,1-2,0V35h6.834c-.753,10.2-3.687,10.962-3.88,11H8C4.521,46,3.075,41.411,2.479,38ZM41,28v5.514l-2,2.574V28Zm20.931,5h-18l.655-.843A2.994,2.994,0,0,1,46.96,31H61.993C61.985,31.662,61.956,32.332,61.931,33ZM59,28v1H46.96a4.985,4.985,0,0,0-3.95,1.927L43,30.94V28H59ZM32,16H48V26H32ZM21,28H37v9.82a2.943,2.943,0,0,1-.96.18H21ZM7,21h6v4H7ZM5,27H15V37.938c-1.591-.2-1.781-.874-1.874-1.236A7.062,7.062,0,0,1,13,35a2.916,2.916,0,0,0-3-3H5Zm4.988,7A.918.918,0,0,1,11,35c0,.33,0,.666.02,1H2.194c-.086-.789-.135-1.481-.161-2ZM61.413,51.413A1.986,1.986,0,0,1,60,52H4a2,2,0,0,1,0-4H60a2,2,0,0,1,1.413,3.413Z"/><rect class="cls-8" x="24" y="30" width="2" height="6"/><rect class="cls-8" x="28" y="30" width="2" height="6"/><rect class="cls-8" x="32" y="30" width="2" height="6"/><rect class="cls-8" x="35" y="18" width="2" height="6"/><rect class="cls-8" x="39" y="18" width="2" height="6"/><rect class="cls-8" x="43" y="18" width="2" height="6"/></g></svg>